<svg id="Layer_1" data-name="Layer 1" xmlns="http://www.w3.org/2000/svg" viewBox="0 0 500 500"><defs><style>.cls-1{fill:#fff;}</style></defs><title>monocle-filled-Fawcett</title><g id="Circle_background" data-name="Circle background"><circle cx="250" cy="250" r="232"/></g><g id="Monocle"><circle class="cls-1" cx="314" cy="294" r="49"/><path class="cls-1" d="M314,250a44,44,0,1,1-44,44,44.05,44.05,0,0,1,44-44m0-10a54,54,0,1,0,54,54,54,54,0,0,0-54-54Z"/></g><g id="Hat"><path class="cls-1" d="M396.5,198.5c-24,5-28-52-48-98-14-32.12-49.88-44.25-75.38-48.64A5.07,5.07,0,0,0,273.5,50c0-5.65-10.21-10.26-23-10.49-12.79.23-23,4.84-23,10.49a5.07,5.07,0,0,0,.38,1.86c-25.5,4.39-61.41,16.52-75.38,48.64-20,46-24,103-48,98-4.39-1.06-9,2-4,9,1.28-.22,59.42-27,89.43-33.55,23.42-5.14,35.07-8.59,60.57-8.59s37.15,3.45,60.57,8.59c30,6.59,88.15,33.33,89.43,33.55C405.5,200.5,400.89,197.44,396.5,198.5Z"/><path class="cls-1" d="M250.5,182.35c-24.5,0-69.08,8-104.3,23,28.25,8.46,85.8,42.56,104.3,42.56s76.05-34.1,104.3-42.56C319.58,190.32,275,182.35,250.5,182.35Z"/></g><path id="Mustache" class="cls-1" d="M376,368c-.5-.5-29.5,48.5-66,48-15,0-23-11-26-15s-4-15-19-15c0,0-11.82,0-14.5,13.36C247.82,386,236,386,236,386c-15,0-16,11-19,15s-11,15-26,15c-36.5.5-65.5-48.5-66-48s14.5,73.5,66,75c32.69,0,55.78-13.09,59.5-31.93C254.22,429.91,277.31,443,310,443,361.5,441.5,376.5,368.5,376,368Z"/></svg>